<svg id="eCxfgLB0Nhq1" xmlns="http://www.w3.org/2000/svg" xmlns:xlink="http://www.w3.org/1999/xlink" viewBox="0 0 600 320" shape-rendering="geometricPrecision" text-rendering="geometricPrecision" project-id="7ac6f51e903b4d0a9b4b04d94e44e5d1" export-id="dc88c63a985b448e8397393811e6ec83" cached="false"><g><path d="M342,273h11.53c7.82,0,12.65.47,15.01,1.45c5.85,2.45,6.9,9.28,2.2,14.31l-2.11,2.26l3.18,3.29c1.76,1.81,3.19,3.6,3.19,3.99c0,.38-1.76.7-3.92.7-3.32,0-4.44-.6-7.27-3.91-3.02-3.52-3.87-3.93-8.83-4.25l-5.48-.34-.31,4.25c-.3,4.12-.41,4.25-3.75,4.25h-3.44v-26Zm-98,0h11.75c13.24,0,18.15,1.53,19.28,6c.96,3.81-.69,8.48-3.54,10.01l-2.55,1.36l4.24,4.31l4.24,4.32h-4.14c-3.5,0-4.72-.61-7.95-3.94-3.32-3.43-4.49-3.99-8.83-4.23l-5-.27-.31,4.22c-.3,4.08-.42,4.22-3.75,4.22h-3.44v-26Zm49,0h12.03c13.64,0,18.38,1.31,19.98,5.52c1.53,4.02,1.2,6.12-1.42,9.17-2.28,2.67-2.94,2.84-12.75,3.31l-10.34.5v3.5c0,3.32-.19,3.52-3.75,3.81l-3.75.31v-26.12ZM101.99,291.25c0-4.26-.29-10.11-.64-13l-.63-5.25h3.77c3.35,0,4.84.97,13.01,8.47c5.07,4.66,9.51,8.18,9.86,7.83s.64-4.16.64-8.47v-7.83h7l-.01,10.75c-.02,14.09-.36,15.25-4.48,15.25-2.71,0-4.76-1.42-12.28-8.5-4.97-4.67-9.3-8.5-9.63-8.5s-.6,3.83-.6,8.5v8.5h-6l-.01-7.75Zm418.26,8.09c-1.74-.37-2.25-1.17-2.25-3.53c0-2.68.27-2.97,2.25-2.4c3.96,1.13,15.44,1.88,18.21,1.19c2.04-.51,2.6-1.19,2.35-2.89-.27-1.95-1.14-2.31-7.31-3.02-11.9-1.39-13.39-1.72-15.02-3.35-1-1-1.47-2.89-1.28-5.12.45-5.26,3.97-7.41,12.98-7.94c9.65-.57,15.22.63,15.62,3.37.29,1.98-.12,2.07-9.58,1.96-7.08-.08-10.37.28-11.57,1.27-3.04,2.51-.12,3.85,10.03,4.61c8.34.62,9.95,1.04,12.07,3.16c2.93,2.94,2.47,6.48-1.33,10.35-2.28,2.32-3.21,2.51-12.69,2.66-5.63.08-11.24-.06-12.48-.32Zm-96.5-.06c-2.29-.34-2.75-.91-2.75-3.39c0-2.92.08-2.96,3.75-2.19c2.06.44,7.07.8,11.14.8c5.9,0,7.6-.35,8.47-1.72c1.77-2.79-.27-3.74-9.95-4.64-10.28-.95-13.12-2.13-14.05-5.85-1.57-6.26,4.25-10.18,15.14-10.18c9.59.01,14,1.08,14,3.41c0,1.85-.58,1.96-8.5,1.64-9.04-.35-14,.82-14,3.32c0,.83.11,1.55.25,1.59s4.88.66,10.54,1.38c11.1,1.41,14.21,3,14.21,7.27c0,6.64-5.1,9.35-17.22,9.13-4.55-.08-9.52-.34-11.03-.57ZM471,273h27v2.47c0,2.44-.1,2.46-10.25,2.75-10.19.28-10.25.29-10.25,2.78c0,2.46.16,2.51,8.81,2.79c8.45.28,8.81.38,8.5,2.5-.29,2.08-.81,2.21-8.56,2.21h-8.25v5.5h10.61c9.26,0,10.53.2,10,1.58-.34.87-.61,2-.61,2.5c0,.51-5.97.92-13.5.92h-13.5v-26Zm-273,0h27v5h-20v6h9c8.26,0,9,.16,9,1.95c0,2.43-4.68,3.49-12.55,2.84-5.42-.45-5.45-.44-5.45,2.38v2.83h10.57c10.39,0,10.56.04,10.25,2.25-.31,2.19-.67,2.26-14.07,2.53l-13.75.28v-26.06ZM56,273h13.57c13.5,0,13.57.01,13.25,2.25-.3,2.13-.82,2.26-10.07,2.54l-9.75.28v5.93h9c8.16,0,9,.18,9,1.89c0,2.56-1.86,3.11-10.58,3.11-7.25,0-7.42.06-7.42,2.5v2.5h10.5c5.78,0,10.5.41,10.5.92c0,3.82-.94,4.08-14.61,4.08L56,299v-26Zm107,5h-6.5c-6.27,0-6.5-.09-6.5-2.5v-2.5h32.14l-.32,2.25c-.28,1.99-.98,2.28-6.07,2.55l-5.75.3v20.9h-7v-21Zm230-5h7v26h-7v-26Zm-75.04,11.55c1.66-2.01.37-5.43-2.31-6.1-1.22-.31-5.12-.42-8.68-.25-5.9.27-6.5.5-6.8,2.62-.66,4.64.25,5.18,8.68,5.18c5.69,0,8.24-.41,9.11-1.45Zm46.47.47c2.74-1.03,3.39-3.8,1.37-5.82-.73-.73-4.27-1.2-9-1.2h-7.8v3.33c0,1.84.3,3.64.67,4c1.02,1.02,11.87.8,14.76-.31Zm-96.3-1.2c1.18-1.86,1.08-2.47-.7-4.25-1.15-1.15-3.58-1.57-9-1.57h-7.43v3.33c0,1.84.29,3.62.64,3.97c1.19,1.2,15.62-.1,16.49-1.48Z" transform="translate(-2.316589 0)" fill="#b9b6b6"/><path d="M416.11,254.99c-16.75-2.35-27.13-9.23-32.87-21.79-2.03-4.42-2.47-6.94-2.46-14.05.01-4.77.51-10.51,1.11-12.76c3.41-12.66,17.14-21.24,36.87-23.03c33.01-3.01,53.9,3.34,61.79,18.79c3.24,6.33,4.79,16.57,3.53,23.35-2.78,15.09-11.1,23.83-26.65,28.04-7.05,1.9-31.88,2.77-41.32,1.45Zm5.53-.69c.1.11,5.52.12,12.03.03c25.55-.36,36.5-4.64,44.16-17.27c9.1-15,5.92-33.17-7.7-43.96-2.27-1.8-4.13-3-4.13-2.66c0,.33-1.69-.24-3.75-1.28-3.45-1.73-5.31-2.32-12.25-3.93-1.38-.32-9.48-.58-18-.57-22.84.03-33.72,3.26-42.96,12.76-2.45,2.52-4.09,4.58-3.63,4.58.45,0,.11,1.08-.75,2.4-.87,1.32-2.09,5.25-2.72,8.75-1,5.52-.9,7.34.8,13.91c1.08,4.16,2.82,8.62,3.86,9.9c5.47,6.7,7.44,8.72,9.57,9.77c7.16,3.56,12.26,5.3,18.4,6.28c3.78.61,6.96,1.19,7.07,1.29Zm-98.1-.41c-17.15-2.5-28.21-10.65-31.67-23.33-1.13-4.13-1.43-18.15-.48-22.39c2.44-10.84,8.8-17.27,20.91-21.14c2.55-.82,12.98-1.27,31.75-1.37L372,185.5v12.5h-18.95c-10.42,0-21.21.48-23.96,1.08-9.54,2.04-14.66,7.48-15.75,16.73-.92,7.74.37,13.79,3.76,17.65c5.07,5.78,9.57,6.74,34.9,7.43l22.5.61.59,13.5-22.79-.12c-12.54-.07-25.48-.51-28.76-.99Zm126.37-12.52c-4.38,2.35-6.82,2.94-13.38,3.19-10.82.43-17.06-.73-23.03-4.25-6.36-3.75-10.22-9.83-11.1-17.47-1.45-12.56,1.84-19.32,12.01-24.63c4.68-2.44,6.05-2.66,17.09-2.66c14.22-.01,20.93,1.8,25.12,6.77c4.04,4.79,5.38,8.9,5.38,16.5c0,11.79-3.21,17.78-12.09,22.55ZM321.5,252.51c4.61,1.19,10.33,1.95,13.5,1.8c3.02-.15,11.35-.47,18.5-.71c7.15-.25,14.02-.76,15.26-1.14c3.39-1.04,4.11-5.34,1.28-7.63-1.94-1.57-4.16-1.83-15.55-1.83-13.17,0-29.53-2.34-34.35-4.92-4.79-2.57-9.15-11.73-9.13-19.2.01-8.87,3.96-15.21,11.89-19.1c4.08-2.01,6.69-2.33,23.1-2.9c20.33-.7,24-1.5,24-5.23c0-4.88-1.47-5.16-27.41-5.08-24.04.07-24.1.08-31.09,2.9-9.05,3.65-13.71,7.38-16.61,13.27-2.01,4.1-2.34,6.29-2.36,15.76-.03,9.47.29,11.63,2.23,15.5c4.92,9.77,12.06,14.72,26.74,18.51Zm124.45-11.27c12.49-3.76,17.93-16.19,13.54-30.96-1.8-6.05-6.45-10.6-12.73-12.45-5.69-1.67-24.17-1.61-29.26.1-9.91,3.34-13.95,9.44-13.95,21.07c0,14.55,6.86,21.46,23.85,24.02c6.09.92,11.2.43,18.55-1.78ZM256.67,254.33c-.83-.83-.87-62.99-.04-66.08.58-2.15,1.06-2.25,10.99-2.25h10.38v69h-10.33c-5.69,0-10.64-.3-11-.67Zm2.2-2.98c1.81,2.17,14.29,2.37,16.05.25c1.66-2,1.6-58.36-.07-62.03-1.17-2.57-1.44-2.64-8.78-2.36l-7.57.29-.78,11c-1.23,17.44-.5,50.86,1.15,52.85ZM239.74,48.62c-5.09-1.88-6.75-3.41-8.84-8.13-6.7-15.1,6.7-28.6,21.06-21.24c16.79,8.61,5.44,35.89-12.22,29.37Zm-4.33,115.63c-3.27-4.34-43.21-55.4-63.95-81.75-7.79-9.9-14.69-18.99-15.32-20.2l-1.16-2.2h38.6l11.03,14.7c6.07,8.08,14.93,20.32,19.7,27.2c13.64,19.67,15.23,21.19,10.49,10-.25-.59-.49-1.14-.71-1.66.34.75.66,1.47.97,2.16.5,1.1,1.37,3.3,1.95,4.9.98,2.69.93,2.8-.72,1.5-2.34-1.84-4.26-4.25-12.72-15.94-3.89-5.38-10.45-14.21-14.57-19.62s-8.84-11.81-10.47-14.21c-4.97-7.31-6.04-7.67-21.49-7.31-15.8.37-17.22.99-14.49,6.31.95,1.85,2,3.59,2.34,3.87s2.64,3.2,5.1,6.5c2.47,3.3,7.2,9.43,10.5,13.61c12.51,15.85,20.04,25.42,20.74,26.39.41.55,1.98,2.54,3.5,4.43c1.51,1.89,4.33,5.55,6.26,8.14c7.6,10.2,23.02,29.73,25.96,32.88c3.05,3.26,3.23,3.32,9.33,2.68c7.54-.78,7.68-.91,23.72-22.61c1.38-1.86,4.08-5.27,6-7.57c3.24-3.89,9.67-12.28,16.24-21.22c1.5-2.05,3.09-4.18,3.53-4.73s1.76-2.57,2.95-4.5c1.18-1.93,3.02-4.44,4.09-5.58s4.14-5.02,6.82-8.61s8.52-11.2,12.98-16.92C331.59,63.39,337,55.07,337,52.76c0-2.1-4.24-2.76-17.62-2.76h5.62c9.35,0,17,.28,17,.63c0,1.18-13.69,19.81-34.12,46.42-11.21,14.6-27.8,36.49-36.88,48.66l-16.5,22.11-8.13.09-8.13.09-2.83-3.75ZM240,47.35c3.43,1.37,10.14-.11,13.03-2.88c7.68-7.35,6.56-19.09-2.33-24.51-4.07-2.49-6.79-2.47-11.78.08-7.14,3.64-9.76,11.33-6.51,19.09c1.43,3.42,4.85,7.12,7.59,8.22ZM185.5,253.9c-21.23-3.08-31.5-14.39-31.5-34.7c0-14.94,4.37-23.46,14.95-29.09c5-2.67,7.82-3.42,15.34-4.09c11.52-1.03,50.47-1.37,54.05-.47c2.5.63,2.66,1.01,2.66,6.56v5.89h-23.82c-26.99,0-32.2.86-36.58,6.06-6.63,7.89-5.84,24.98,1.48,31.8c3.33,3.11,12.63,5.09,27.07,5.79l13.54.65.64-5.4c.22-1.77.42-3.22.56-4.41-.03.68-.07,1.44-.1,2.29l-.29,7.72-13.89.28c-15.64.31-22.35-1-27.59-5.41-5.25-4.42-7.02-9.15-7.02-18.75c0-8.02.17-8.69,3.26-12.74c6.17-8.09,7.04-8.31,34.34-8.88c25.76-.53,27.4-.87,27.4-5.6c0-4.71-2.63-5.22-27.5-5.42-12.95-.1-25.19.27-28,.86-5.05,1.06-13.83,4.09-16.66,5.76-3.17,1.86-8.03,6.47-8.22,7.81-.12.76-.69,2-1.28,2.74s-1.33,2.47-1.64,3.85-1.07,4.51-1.68,6.96c-1.3,5.15-.73,9.53,2.32,18.01c2.66,7.39,8.25,13.48,15.24,16.59c7.37,3.29,9.81,3.61,31.92,4.31c11,.35,22.48.76,25.5.93c9.43.51,9.5.37,9.5-20.14c0-9.62-.37-17.87-.83-18.33s-8.93-.83-18.83-.83c-16.66,0-18.1.14-19.42,1.94-1.57,2.14-1.83,5.37-.59,7.32.51.8,4.27,1.46,10.24,1.81c8.66.5,12.01.49,13.23,2.1.18.24.31.51.41.82-.06-.11-.13-.21-.2-.3-1.17-1.47-4.52-1.19-12.56-1.19h-13.05l.6-12.5l21.27-.27l21.27-.27-.27,20.27-.27,20.27-24.5.14c-13.48.07-27.2-.26-30.5-.74ZM46.6,251.25c-1.92-4.07-11.4-21.03-26.69-47.75l-9.73-17l10.66-.5c5.86-.27,10.95-.39,11.3-.26.36.14,6.18,10.26,12.93,22.5c6.76,12.24,13.29,24,14.51,26.13l1.88,3.27c-1.64-.61-4.38-3.61-4.43-5.2-.02-.59-.95-2.05-2.07-3.25-1.12-1.21-1.68-2.2-1.25-2.21.43,0,.33-.34-.23-.75-1.08-.77-3.91-6.63-3.32-6.88.19-.07-.38-.97-1.25-2-.87-1.02-3.3-5-5.39-8.85s-4.35-7.68-5.03-8.5-1.76-3.13-2.4-5.13-2.02-4.4-3.05-5.34c-4.59-4.14-17.04-3.75-17.04.54c0,1.1,1.22,4.34,2.7,7.21c1.49,2.87,2.63,5.5,2.54,5.85s.72,1.43,1.8,2.41c1.08.97,1.96,2.14,1.96,2.59s1.93,4.09,4.29,8.09s4.89,8.74,5.62,10.53s1.63,3.25,1.99,3.25c.53,0,2.3,3.5,3.55,7c.27.75,3.7,6.62,6.78,11.59L49.96,253h10.3c11.48,0,13.73-.87,16.24-6.32c2.66-5.75,9.57-18.1,11.05-19.74.8-.88,1.45-1.96,1.45-2.4c0-.87,6.88-14.61,13.18-26.34c5.33-9.92,4.85-11.2-4.22-11.2h-6.91l-4.28,7.42c-5.52,9.58-7.65,13.45-7.91,14.35-.34,1.23-6.07,11.64-7.28,13.23-.62.82-2.7,4.58-4.61,8.34-1.91,3.77-4.03,7.08-4.72,7.36-.07.03-.14.04-.23.05l1.77-3.88c1.1-2.4,7.18-14.05,13.5-25.87L88.8,186.5l11.21-.28l11.2-.29-6.7,12.79c-3.69,7.03-12.14,22.57-18.78,34.53L73.65,255h-25.28l-1.77-3.75ZM307.64,12.5c-.84,2.17-.13,1.86,1.05-.06-2.41,4.41-7.19,12.43-15.92,26.91-16.91,28.05-24.8,43.73-30.75,61.11-3.29,9.62-4.56,14.3-3.14,13.99-.4.17-.71.15-.97-.01-3.38-2.09,11.82-39.41,24.67-60.57c1.88-3.1,3.42-6.21,3.42-6.92s.63-2,1.4-2.87c1.98-2.22,8.38-15.03,9.16-18.33.76-3.17-.52-3.54-4.72-1.35-4.56,2.38-15.67,12.96-26.35,25.1-4.65,5.29-12.57,17.12-17.74,26.49-.24.43-.5.84-.77,1.19.01-.16.02-.33.02-.53c0-2.47,10.42-19.37,17.18-27.86c3.81-4.79,11.03-12.57,16.05-17.29c7.33-6.9,21.69-18.48,27.73-22.62-.02.02-.04.04-.07.06-1.43,1.2-1.85,2.01-1.03,2.03.79.02,1.11.66.78,1.53ZM494.63,251.91c-.35-1.74-.63-17.28-.63-34.53v-31.38h26.79l13.36,15.25c7.35,8.39,16.67,19.19,20.71,24c3.75,4.46,6.92,8.17,7.43,8.68-.08.06-.17.07-.27.07-1.35,0-6.68-5.33-12.49-12.5-2.68-3.3-6.93-8.21-9.45-10.92-8.38-8.99-10.55-11.42-13.97-15.62-5.46-6.7-8.31-7.95-18.17-7.96-4.88,0-7.84-.34-9.66.95-3.17,2.24-2.85,9.41-3.07,31.86-.24,24.01-.46,30.67,2.41,32.51c1.25.8,3.08.68,5.76.68c2.96,0,4.9.09,6.18-.79c2.53-1.74,2.48-7.25,2.68-24.71.16-14.58.46-20.97,1.09-22.58-.07,2.98-.07,12.78,0,24.33l.17,25.25-9.12.29-9.12.28-.63-3.16Zm68.87,1.47c4.66.67,14.65-.26,16.15-1.5c1.07-.89,1.35-6.61,1.35-27.86c0-14.71-.29-28.82-.63-31.37-.57-4.12-.98-4.72-3.75-5.48-4.1-1.12-10.24-.33-11.76,1.5-.82.99-1.28,6.59-1.41,17.15-.3,23.12-.4,27.34-1.08,28.05.07-1.27.13-11.65.13-24.15v-24.28l9.5.26l9.5.26.26,34.52.27,34.52h-25.56l-21.43-25.5c-10.33-12.29-19.09-22.62-21.18-24.99c2.64.37,12.14,9.78,19.02,18.9c3.94,5.22,7.74,10.08,8.44,10.79.69.72,4.32,5.01,8.06,9.55c3.75,4.54,7.78,8.47,8.96,8.73c1.19.26,3.51.67,5.16.9ZM207.58,5.13c.63,1.02.87,1.02,1.21.01.34-1.02-.04-1.97-.61-2.14.45.01.82.64.82,1.42c0,3.76,7.57,27.06,11.46,35.27c2.42,5.09,8.98,16.01,14.6,24.26c6.44,9.45,9.71,13.72,11.1,14.15-.55.51-1.07.77-1.41.66-1.11-.36-7.32-8.98-18.57-25.76-2.02-3.03-4.02-5.65-4.43-5.83-.41-.19-.75-.75-.75-1.25s-1.31-3.73-2.92-7.17c-2.42-5.18-4.62-11.18-8.66-23.61-.36-1.09-.74-1.12-1.93-.13-2.77,2.3-1.97,17.94,1.61,31.63c1.71,6.52,3.21,12.31,3.35,12.86.13.55,1.15,3.03,2.27,5.5c5.61,12.39,7,15.73,7.65,18.33.39,1.56,2.09,5.83,3.77,9.5c1.53,3.34,3.35,7.35,5.11,11.21-.74-1.45-1.3-2.31-1.91-3.07-1.84-2.25-13.84-28.86-17.88-39.64C206.6,48.35,204.02,36.81,204,28c-.01-6.6,1.87-19.12,3.31-23.47.06.2.15.41.27.6ZM120.61,253.42c-.34-.87-.61-16.4-.61-34.5v-32.92h10.81c-4.48,0-6.27.46-7.81,2-1.91,1.91-2,3.33-2,32.38c0,23.13.3,30.62,1.25,31.42.69.57,2.83,1.23,4.75,1.46c7.26.87,9.62.69,11.93-.92l2.37-1.66-.68-31.09c-.53-24.32-.44-31.08-3.41-32.93-.73-.46-1.64-.61-2.8-.66h7.59v69h-10.39c-8.56,0-10.5-.28-11-1.58ZM310.43,7.41c.15-.06.25-.06.29-.02.17.17.13.6-.27,1.55.37-.98.36-1.49-.02-1.53Z" fill="#0a387e"/><path d="M236.95,163.95c-2.94-3.15-18.36-22.68-25.96-32.88-1.93-2.59-4.75-6.25-6.26-8.14-1.52-1.89-3.09-3.88-3.5-4.43-.7-.97-8.23-10.54-20.74-26.39-3.3-4.18-8.03-10.31-10.5-13.61-2.46-3.3-4.76-6.22-5.1-6.5s-1.39-2.02-2.34-3.87c-2.73-5.32-1.31-5.94,14.49-6.31c15.45-.36,16.52,0,21.49,7.31c1.63,2.4,6.35,8.8,10.47,14.21s10.68,14.24,14.57,19.62c8.46,11.69,10.38,14.1,12.72,15.94c1.65,1.3,1.7,1.19.72-1.5-.58-1.6-1.45-3.8-1.95-4.9-2.51-5.6-6.19-13.7-8.92-19.67-1.68-3.67-3.38-7.94-3.77-9.5-.65-2.6-2.04-5.94-7.65-18.33-1.12-2.47-2.14-4.95-2.27-5.5-.14-.55-1.64-6.34-3.35-12.86-3.58-13.69-4.38-29.33-1.61-31.63c1.19-.99,1.57-.96,1.93.13c4.04,12.43,6.24,18.43,8.66,23.61c1.61,3.44,2.92,6.67,2.92,7.17s.34,1.06.75,1.25c.41.18,2.41,2.8,4.43,5.83c11.25,16.78,17.46,25.4,18.57,25.76.69.22,2.04-1.02,3-2.77c5.17-9.37,13.09-21.2,17.74-26.49c10.68-12.14,21.79-22.72,26.35-25.1c4.2-2.19,5.48-1.82,4.72,1.35-.78,3.3-7.18,16.11-9.16,18.33-.77.87-1.4,2.16-1.4,2.87s-1.54,3.82-3.42,6.92c-12.85,21.16-28.05,58.48-24.67,60.57c1.32.82,3.93-2.1,12.92-14.44c4.21-5.78,14.29-19.39,22.41-30.25L308.01,50h11.37c13.38,0,17.62.66,17.62,2.76c0,2.31-5.41,10.63-14.39,22.13-4.46,5.72-10.3,13.33-12.98,16.92s-5.75,7.47-6.82,8.61-2.91,3.65-4.09,5.58c-1.19,1.93-2.51,3.95-2.95,4.5s-2.03,2.68-3.53,4.73c-6.57,8.94-13,17.33-16.24,21.22-1.92,2.3-4.62,5.71-6,7.57-16.04,21.7-16.18,21.83-23.72,22.61-6.1.64-6.28.58-9.33-2.68ZM421.64,254.3c-.11-.1-3.29-.68-7.07-1.29-6.14-.98-11.24-2.72-18.4-6.28-2.13-1.05-4.1-3.07-9.57-9.77-1.04-1.28-2.78-5.74-3.86-9.9-1.7-6.57-1.8-8.39-.8-13.91.63-3.5,1.85-7.43,2.72-8.75.86-1.32,1.2-2.4.75-2.4-.46,0,1.18-2.06,3.63-4.58c9.24-9.5,20.12-12.73,42.96-12.76c8.52-.01,16.62.25,18,.57c6.94,1.61,8.8,2.2,12.25,3.93c2.06,1.04,3.75,1.61,3.75,1.28c0-.34,1.86.86,4.13,2.66c13.62,10.79,16.8,28.96,7.7,43.96-7.66,12.63-18.61,16.91-44.16,17.27-6.51.09-11.93.08-12.03-.03Zm141.86-.92c-1.65-.23-3.97-.64-5.16-.9-1.18-.26-5.21-4.19-8.96-8.73-3.74-4.54-7.37-8.83-8.06-9.55-.7-.71-4.5-5.57-8.44-10.79-7.02-9.3-16.76-18.91-19.17-18.91-.9,0-1.28,5.81-1.47,23-.2,17.46-.15,22.97-2.68,24.71-1.28.88-3.22.79-6.18.79-2.68,0-4.51.12-5.76-.68-2.87-1.84-2.65-8.5-2.41-32.51.22-22.45-.1-29.62,3.07-31.86c1.82-1.29,4.78-.95,9.66-.95c9.86.01,12.71,1.26,18.17,7.96c3.42,4.2,5.59,6.63,13.97,15.62c2.52,2.71,6.77,7.62,9.45,10.92c5.81,7.17,11.14,12.5,12.49,12.5c1.01,0,1.09-1.54,1.43-28.18.13-10.56.59-16.16,1.41-17.15c1.52-1.83,7.66-2.62,11.76-1.5c2.77.76,3.18,1.36,3.75,5.48.34,2.55.63,16.66.63,31.37c0,21.25-.28,26.97-1.35,27.86-1.5,1.24-11.49,2.17-16.15,1.5Zm-359-.51c-22.11-.7-24.55-1.02-31.92-4.31-6.99-3.11-12.58-9.2-15.24-16.59-3.05-8.48-3.62-12.86-2.32-18.01.61-2.45,1.37-5.58,1.68-6.96s1.05-3.11,1.64-3.85s1.16-1.98,1.28-2.74c.19-1.34,5.05-5.95,8.22-7.81c2.83-1.67,11.61-4.7,16.66-5.76c2.81-.59,15.05-.96,28-.86c24.87.2,27.5.71,27.5,5.42c0,4.73-1.64,5.07-27.4,5.6-27.3.57-28.17.79-34.34,8.88-3.09,4.05-3.26,4.72-3.26,12.74c0,9.6,1.77,14.33,7.02,18.75c5.24,4.41,11.95,5.72,27.59,5.41l13.89-.28.29-7.72c.15-3.84.41-5.92-.49-7.11-1.22-1.61-4.57-1.6-13.23-2.1-5.97-.35-9.73-1.01-10.24-1.81-1.24-1.95-.98-5.18.59-7.32c1.32-1.8,2.76-1.94,19.42-1.94c9.9,0,18.37.37,18.83.83s.83,8.71.83,18.33c0,20.51-.07,20.65-9.5,20.14-3.02-.17-14.5-.58-25.5-.93Zm245.41-11.5c8.88-4.77,12.09-10.76,12.09-22.55c0-7.6-1.34-11.71-5.38-16.5-4.19-4.97-10.9-6.78-25.12-6.77-11.04,0-12.41.22-17.09,2.66-10.17,5.31-13.46,12.07-12.01,24.63.88,7.64,4.74,13.72,11.1,17.47c5.97,3.52,12.21,4.68,23.03,4.25c6.56-.25,9-.84,13.38-3.19ZM47.23,248.59c-3.08-4.97-6.51-10.84-6.78-11.59-1.25-3.5-3.02-7-3.55-7-.36,0-1.26-1.46-1.99-3.25s-3.26-6.53-5.62-10.53-4.29-7.64-4.29-8.09-.88-1.62-1.96-2.59c-1.08-.98-1.89-2.06-1.8-2.41s-1.05-2.98-2.54-5.85c-1.48-2.87-2.7-6.11-2.7-7.21c0-4.29,12.45-4.68,17.04-.54c1.03.94,2.41,3.34,3.05,5.34s1.72,4.31,2.4,5.13s2.94,4.65,5.03,8.5s4.52,7.83,5.39,8.85c.87,1.03,1.44,1.93,1.25,2-.59.25,2.24,6.11,3.32,6.88.56.41.66.75.23.75-.43.01.13,1,1.25,2.21c1.12,1.2,2.05,2.66,2.07,3.25.06,1.89,3.93,5.79,5.22,5.26.69-.28,2.81-3.59,4.72-7.36c1.91-3.76,3.99-7.52,4.61-8.34c1.21-1.59,6.94-12,7.28-13.23.26-.9,2.39-4.77,7.91-14.35L91.05,187h6.91c9.07,0,9.55,1.28,4.22,11.2C95.88,209.93,89,223.67,89,224.54c0,.44-.65,1.52-1.45,2.4-1.48,1.64-8.39,13.99-11.05,19.74-2.51,5.45-4.76,6.32-16.24,6.32h-10.3l-2.73-4.41Zm274.27,3.92c-14.68-3.79-21.82-8.74-26.74-18.51-1.94-3.87-2.26-6.03-2.23-15.5.02-9.47.35-11.66,2.36-15.76c2.9-5.89,7.56-9.62,16.61-13.27c6.99-2.82,7.05-2.83,31.09-2.9c25.94-.08,27.41.2,27.41,5.08c0,3.73-3.67,4.53-24,5.23-16.41.57-19.02.89-23.1,2.9-7.93,3.89-11.88,10.23-11.89,19.1-.02,7.47,4.34,16.63,9.13,19.2c4.82,2.58,21.18,4.92,34.35,4.92c11.39,0,13.61.26,15.55,1.83c2.83,2.29,2.11,6.59-1.28,7.63-1.24.38-8.11.89-15.26,1.14-7.15.24-15.48.56-18.5.71-3.17.15-8.89-.61-13.5-1.8Zm-194.5.75c-1.92-.23-4.06-.89-4.75-1.46-.95-.8-1.25-8.29-1.25-31.42c0-29.05.09-30.47,2-32.38c1.54-1.54,3.33-2,7.81-2c3.02,0,5.04-.19,6.4.66c2.97,1.85,2.88,8.61,3.41,32.93l.68,31.09-2.37,1.66c-2.31,1.61-4.67,1.79-11.93.92Zm131.87-1.91c-1.65-1.99-2.38-35.41-1.15-52.85l.78-11l7.57-.29c7.34-.28,7.61-.21,8.78,2.36c1.67,3.67,1.73,60.03.07,62.03-1.76,2.12-14.24,1.92-16.05-.25ZM240,47.35c-2.74-1.1-6.16-4.8-7.59-8.22-3.25-7.76-.63-15.45,6.51-19.09c4.99-2.55,7.71-2.57,11.78-.08c8.89,5.42,10.01,17.16,2.33,24.51-2.89,2.77-9.6,4.25-13.03,2.88Z" fill="#05459d"/><path d="M307.64,12.5c.33-.87.01-1.51-.78-1.53-.82-.02-.4-.83,1.03-2.03c3.09-2.57,3.66-1.9,1.66,1.97-1.65,3.18-2.93,4.25-1.91,1.59ZM207.58,5.13c-.43-.69-.51-1.53-.18-1.86.89-.9,1.87.42,1.39,1.87-.34,1.01-.58,1.01-1.21-.01Z" fill="#12284a"/><path d="M263.7,166.75c.52-.69,5.11-6.99,10.2-14L283.15,140l61.18-.25c33.64-.14,66.34-.24,72.67-.24l11.5.02.28,14.23.27,14.24h-83.15c-66.35,0-82.95-.25-82.2-1.25Zm3.95-1.22c.49,1.28,10.32,1.47,74.71,1.46c40.78,0,76.5-.29,79.39-.64l5.25-.63v-24.72h-141.92l-2.14,2.25c-1.17,1.24-4.2,5.18-6.73,8.75-2.54,3.57-5.62,7.75-6.87,9.28-1.24,1.52-2,3.44-1.69,4.25Zm67.03-86.37l-3.82-.66l4.14-6c2.27-3.3,6.95-9.83,10.39-14.5l6.26-8.5l38.68-.26L429,48.98v30.02l-40.25.01c-22.14,0-42.5.19-45.25.41s-6.72.11-8.82-.26Zm.74-2.52c.83,2.19,90.2,1.56,91.62-.64.85-1.33.27-23.83-.65-24.89-.66-.76-67.96-1.04-71.39-.3-3.04.67-4.59,2.31-11.81,12.59-4.71,6.68-8.08,12.44-7.77,13.24Zm-33.28,44.48l-3.36-.62l5.39-7.5c2.96-4.12,7.28-10.06,9.59-13.18l4.2-5.69l49.77-.31c27.37-.18,52.37-.17,55.55.02l5.78.35-.28,13.65-.28,13.66-7.79.02c3.53-.25,4.54-.63,5.11-1.21c1.39-1.39,1.67-3.67,1.6-13.03-.04-6.23-.51-11.77-1.03-12.29-1.46-1.46-11.16-1.56-60.39-.63l-45.5.87-3.52,3.69c-5.83,6.1-14.01,17.48-13.72,19.08.19,1.07,2.25,1.72,7.25,2.26c3.85.42,7.44.95,7.99,1.17.05.02.33.05.8.07-9.91-.09-16.33-.22-17.16-.38Z" fill="#c76428"/><path d="M267.65,165.53c-.31-.81.45-2.73,1.69-4.25c1.25-1.53,4.33-5.71,6.87-9.28c2.53-3.57,5.56-7.51,6.73-8.75l2.14-2.25h70.96h70.96v12.36v12.36l-5.25.63c-2.89.35-38.61.64-79.39.64-64.39.01-74.22-.18-74.71-1.46Zm50.85-44.1c-.55-.22-4.14-.75-7.99-1.17-5-.54-7.06-1.19-7.25-2.26-.29-1.6,7.89-12.98,13.72-19.08l3.52-3.69l45.5-.87c49.23-.93,58.93-.83,60.39.63.52.52.99,6.06,1.03,12.29.07,9.36-.21,11.64-1.6,13.03-1.53,1.54-6.18,1.68-54,1.61-28.78-.04-52.77-.26-53.32-.49Zm16.92-44.79c-.31-.8,3.06-6.56,7.77-13.24c7.22-10.28,8.77-11.92,11.81-12.59c3.43-.74,70.73-.46,71.39.3.92,1.06,1.5,23.56.65,24.89-1.42,2.2-90.79,2.83-91.62.64Z" fill="#ed6c1c"/></g></svg>
